<svg width="16" height="16" viewBox="0 0 16 16" fill="none" xmlns="http://www.w3.org/2000/svg">
<g id="Search">
<path id="Shape" fill-rule="evenodd" clip-rule="evenodd" d="M8.30739 8.30739C9.28987 7.3249 9.28987 5.73199 8.30739 4.7495C7.3249 3.76702 5.73199 3.76702 4.7495 4.7495C3.76702 5.73199 3.76702 7.3249 4.7495 8.30739C5.73199 9.28987 7.3249 9.28987 8.30739 8.30739ZM8.93962 10.3628C7.19005 11.4652 4.85025 11.2544 3.32635 9.73054C1.55788 7.96207 1.55788 5.09482 3.32635 3.32635C5.09482 1.55788 7.96207 1.55788 9.73054 3.32635C11.2544 4.85025 11.4652 7.19005 10.3628 8.93962L14 12.5768L12.5768 14L8.93962 10.3628Z" fill="#666666"/>
</g>
</svg>
